<?xml version="1.0" encoding="utf-8"?>
<!-- Generator: Adobe Illustrator 19.2.0, SVG Export Plug-In . SVG Version: 6.00 Build 0)  -->
<svg version="1.1" id="Objects" xmlns="http://www.w3.org/2000/svg" xmlns:xlink="http://www.w3.org/1999/xlink" x="0px" y="0px"
	 viewBox="0 0 336 235.2" style="enable-background:new 0 0 336 235.2;" xml:space="preserve">
<style type="text/css">
	.st0{fill:#B2E1EE;}
	.st1{fill:#CFDBE5;}
	.st2{fill:#F0F0F0;}
	.st3{fill:#F6D4C1;}
	.st4{fill:#F69777;}
	.st5{fill:#FFD55C;}
	.st6{fill:#FAB952;}
	.st7{fill:#586773;}
	.st8{fill:#FFFFFF;}
	.st9{fill-rule:evenodd;clip-rule:evenodd;fill:#586773;}
	.st10{fill-rule:evenodd;clip-rule:evenodd;fill:#FAB952;}
	.st11{opacity:0.5;fill-rule:evenodd;clip-rule:evenodd;fill:#FFFFFF;}
</style>
<rect id="background" class="st0" width="336" height="235.2"/>
<g id="tea">
	<path class="st1" d="M321.2,53.3h-10.5c-2-18.2-17.5-32.3-36.2-32.3c-20.1,0-36.4,16.3-36.4,36.4c0,20.1,16.3,36.4,36.4,36.4
		c18.7,0,34.1-14.1,36.2-32.2c0,0.3,0,0.5-0.1,0.8h10.5c1.9,0,2.8-2,2.8-4.6C323.9,55.3,323.1,53.3,321.2,53.3z"/>
	<path class="st2" d="M305.8,57.4c0,20.1-16.3,36.4-36.4,36.4c-20.1,0-36.4-16.3-36.4-36.4c0-20.1,16.3-36.4,36.4-36.4
		C289.5,20.9,305.8,37.2,305.8,57.4"/>
	<path class="st3" d="M299.7,57.4c0,16.7-13.6,30.3-30.3,30.3c-16.7,0-30.3-13.6-30.3-30.3c0-16.7,13.6-30.3,30.3-30.3
		C286.1,27,299.7,40.6,299.7,57.4"/>
	<path class="st4" d="M295.7,57.4c0,14.5-11.8,26.3-26.3,26.3c-14.5,0-26.3-11.8-26.3-26.3c0-14.5,11.8-26.3,26.3-26.3
		C283.9,31.1,295.7,42.9,295.7,57.4"/>
	<path class="st2" d="M318.8,57.8c0,2.5-0.9,4.6-2.8,4.6h-10.5c0.1-1.5,0.2-3,0.2-4.6c0-1.5-0.1-3.1-0.2-4.6H316
		C317.9,53.3,318.8,55.3,318.8,57.8"/>
</g>
<g id="paper">
	<path class="st1" d="M125.4,22.8H37.5c-1.3,0-2.6,0.5-3.7,1.5c-1,1-1.5,2.3-1.5,3.7v136.2c0,1.3,0.5,2.6,1.5,3.7
		c1,1,2.3,1.5,3.7,1.5h101.7c1.3,0,2.6-0.5,3.7-1.5c1-1,1.5-2.3,1.5-3.7V41.7L125.4,22.8z"/>
	<g>
		<g>
			<path class="st5" d="M139.9,41.7v122.4c0,1.3-0.5,2.6-1.5,3.7c-1,1-2.3,1.5-3.7,1.5H33c-1.3,0-2.6-0.5-3.7-1.5
				c-1-1-1.5-2.3-1.5-3.7V27.9c0-1.3,0.5-2.6,1.5-3.7c1-1,2.3-1.5,3.7-1.5h87.9L139.9,41.7z"/>
			<path class="st6" d="M139.9,41.7h-13.8c-1.3,0-2.7-0.5-3.7-1.5c-1-1-1.5-2.3-1.5-3.7V22.8L139.9,41.7z"/>
		</g>
		<g>
			<rect x="46.8" y="58.5" class="st7" width="74.1" height="1.7"/>
			<rect x="46.8" y="63.6" class="st7" width="74.1" height="1.7"/>
			<rect x="46.8" y="41.7" class="st8" width="37.1" height="5.8"/>
			<rect x="46.8" y="53.3" class="st7" width="74.1" height="1.7"/>
			<rect x="46.8" y="94.4" class="st7" width="74.1" height="1.7"/>
			<rect x="46.8" y="89.2" class="st7" width="74.1" height="1.7"/>
			<rect x="46.8" y="84.1" class="st7" width="74.1" height="1.7"/>
			<rect x="46.8" y="79" class="st7" width="74.1" height="1.7"/>
			<rect x="46.8" y="73.8" class="st7" width="74.1" height="1.7"/>
			<rect x="46.8" y="68.7" class="st7" width="74.1" height="1.7"/>
			<rect x="46.8" y="104.9" class="st7" width="74.1" height="1.7"/>
			<rect x="46.8" y="110" class="st7" width="74.1" height="1.7"/>
			<rect x="46.8" y="99.8" class="st7" width="74.1" height="1.7"/>
			<rect x="46.8" y="140.8" class="st7" width="74.1" height="1.7"/>
			<rect x="46.8" y="135.7" class="st7" width="74.1" height="1.7"/>
			<rect x="46.8" y="130.5" class="st7" width="74.1" height="1.7"/>
			<rect x="46.8" y="125.4" class="st7" width="74.1" height="1.7"/>
			<rect x="46.8" y="120.3" class="st7" width="74.1" height="1.7"/>
			<rect x="46.8" y="115.1" class="st7" width="74.1" height="1.7"/>
		</g>
	</g>
</g>
<g id="notes">
	<path class="st1" d="M218.9,52.3V47c0-1.4-1.1-2.5-2.5-2.5c-1.4,0-2.5,1.1-2.5,2.5v5.2h-8.2V47c0-1.4-1.1-2.5-2.5-2.5
		s-2.5,1.1-2.5,2.5v5.2h-8.2V47c0-1.4-1.1-2.5-2.5-2.5c-1.4,0-2.5,1.1-2.5,2.5v5.2h-8.2V47c0-1.4-1.1-2.5-2.5-2.5
		c-1.4,0-2.5,1.1-2.5,2.5v5.2h-8.2V47c0-1.4-1.1-2.5-2.5-2.5c-1.4,0-2.5,1.1-2.5,2.5v5.2H153V47c0-1.4-1.1-2.5-2.5-2.5
		c-1.4,0-2.5,1.1-2.5,2.5v5.2h-8.2V47c0-1.4-1.1-2.5-2.5-2.5c-1.4,0-2.5,1.1-2.5,2.5v5.2h-8.2V47c0-1.4-1.1-2.5-2.5-2.5
		c-1.4,0-2.5,1.1-2.5,2.5v5.2h-10.1v138.4H229V52.3H218.9z"/>
	<g>
		<rect x="106.1" y="52.3" class="st8" width="117.5" height="138.4"/>
		<g>
			<path class="st7" d="M116.2,47v10.5c0,1.4,1.1,2.5,2.5,2.5c1.4,0,2.5-1.1,2.5-2.5V47c0-1.4-1.1-2.5-2.5-2.5
				C117.4,44.5,116.2,45.7,116.2,47z"/>
			<path class="st7" d="M129.4,47v10.5c0,1.4,1.1,2.5,2.5,2.5c1.4,0,2.5-1.1,2.5-2.5V47c0-1.4-1.1-2.5-2.5-2.5
				C130.5,44.5,129.4,45.7,129.4,47z"/>
			<path class="st7" d="M142.6,47v10.5c0,1.4,1.1,2.5,2.5,2.5c1.4,0,2.5-1.1,2.5-2.5V47c0-1.4-1.1-2.5-2.5-2.5
				C143.7,44.5,142.6,45.7,142.6,47z"/>
			<path class="st7" d="M155.8,47v10.5c0,1.4,1.1,2.5,2.5,2.5c1.4,0,2.5-1.1,2.5-2.5V47c0-1.4-1.1-2.5-2.5-2.5
				C156.9,44.5,155.8,45.7,155.8,47z"/>
			<path class="st7" d="M169,47v10.5c0,1.4,1.1,2.5,2.5,2.5c1.4,0,2.5-1.1,2.5-2.5V47c0-1.4-1.1-2.5-2.5-2.5
				C170.1,44.5,169,45.7,169,47z"/>
			<path class="st7" d="M182.1,47v10.5c0,1.4,1.1,2.5,2.5,2.5c1.4,0,2.5-1.1,2.5-2.5V47c0-1.4-1.1-2.5-2.5-2.5
				C183.3,44.5,182.1,45.7,182.1,47z"/>
			<path class="st7" d="M195.3,47v10.5c0,1.4,1.1,2.5,2.5,2.5c1.4,0,2.5-1.1,2.5-2.5V47c0-1.4-1.1-2.5-2.5-2.5
				C196.4,44.5,195.3,45.7,195.3,47z"/>
			<path class="st7" d="M208.5,47v10.5c0,1.4,1.1,2.5,2.5,2.5c1.4,0,2.5-1.1,2.5-2.5V47c0-1.4-1.1-2.5-2.5-2.5
				C209.6,44.5,208.5,45.7,208.5,47z"/>
		</g>
		<rect x="116.2" y="69.5" class="st1" width="97.3" height="2.2"/>
		<rect x="116.2" y="77.7" class="st1" width="97.3" height="2.2"/>
		<rect x="116.2" y="85.8" class="st1" width="97.3" height="2.2"/>
		<rect x="116.2" y="94" class="st1" width="97.3" height="2.2"/>
		<rect x="116.2" y="102.2" class="st1" width="97.3" height="2.2"/>
		<rect x="116.2" y="110.4" class="st1" width="97.3" height="2.2"/>
		<rect x="116.2" y="118.6" class="st1" width="97.3" height="2.2"/>
		<rect x="116.2" y="126.8" class="st1" width="97.3" height="2.2"/>
		<rect x="116.2" y="134.9" class="st1" width="97.3" height="2.2"/>
		<rect x="116.2" y="143.1" class="st1" width="97.3" height="2.2"/>
		<rect x="116.2" y="151.3" class="st1" width="97.3" height="2.2"/>
		<rect x="116.2" y="159.5" class="st1" width="97.3" height="2.2"/>
		<rect x="116.2" y="167.7" class="st1" width="97.3" height="2.2"/>
	</g>
</g>
<g id="hand">
	<path class="st1" d="M284.4,167.8l-3.3,2.8l-4.5-5.3c-3-6.7-8.2-17.4-10.6-20.9c0,0,0,0,0,0c-1.3-2.2-2.9-4.3-4.8-6.4l-6.5-6.7
		c0,0,0,0,0,0l0,0l-0.3-0.3l0,0l-14.2-12.1c-3.5-2.8-5.8-3.4-8.5-0.9c-1.3,1.2-1.8,2.6-1.6,4l-0.2-0.2c-2.4-2.6-6.5-2.7-9.1-0.3
		c-1.9,1.7-2.4,4.3-1.7,6.6l-1.7-1.8c-2-2.9-6.1-3.1-8.7-0.6c-0.4,0.4-0.7,0.7-1,1.2c-1.2,1.9-1.4,4.3-0.5,6.3l-14.3-15.4
		c-2.4-2.6-6.5-2.7-9.1-0.3c-2.6,2.4-2.7,6.5,0.8,10.3l17.9,19.3c0.7,0.8,1.5,1.7,2.2,2.5h0c-8.9,9.8,24.8,31.5,24.8,31.5
		s8.9,4,17.7,8.8l-3.8,3.4l4.6,5.6l-3.1,2.6l28.2,33.5l63,0.6v-5.9L284.4,167.8z"/>
	<g>
		<polygon class="st4" points="242.7,198.5 238.1,192.9 271.3,165.1 275.9,170.6 		"/>
		<polygon class="st7" points="268.5,235.2 239.7,201.1 279.3,167.8 336,235.2 		"/>
		<path class="st3" d="M271,165.3c-3-6.7-7.8-17.3-10.2-20.7c0,0,0,0,0,0c-1.3-2.2-2.9-4.3-4.8-6.4l-6.5-6.7c0,0,0,0,0,0l0,0
			l-0.3-0.3l0,0L235,119c-3.5-2.8-5.8-3.4-8.5-0.9c-1.3,1.2-1.8,2.6-1.6,4l-0.2-0.2c-2.4-2.6-6.5-2.7-9.1-0.3
			c-1.9,1.7-2.4,4.3-1.7,6.6l-1.7-1.8c-2-2.9-6.1-3.1-8.7-0.6c-0.4,0.4-0.7,0.7-1,1.2c-1.2,1.9-1.4,4.3-0.5,6.3l-14.3-15.4
			c-2.4-2.6-6.5-2.7-9.1-0.3c-2.6,2.4-2.7,6.5,0.8,10.3l17.9,19.3c0.7,0.8,1.5,1.7,2.2,2.5h0c-8.9,9.8,24.8,31.5,24.8,31.5
			s8.9,4,17.7,8.8L271,165.3z"/>
	</g>
</g>
<g id="pencil">
	<polygon class="st1" points="127.7,62.3 127.7,62.2 119.3,62.2 119.3,62.3 119.3,163.2 122.5,175.8 123.5,180 124.6,175.8 
		127.7,163.2 127.7,62.3 	"/>
	<g id="pencil_1_">
		<polygon class="st4" points="120.1,62.3 115.9,62.3 115.9,163.2 120.1,163.2 124.3,163.2 124.3,62.3 		"/>
		<polygon class="st7" points="120.1,180 121.2,175.8 119.1,175.8 		"/>
		<polygon class="st3" points="121.2,175.8 124.3,163.2 115.9,163.2 119.1,175.8 		"/>
		<g>
			<rect x="115.9" y="62.2" class="st6" width="8.4" height="8.4"/>
		</g>
	</g>
</g>
<g id="glasses">
	<g>
		<path class="st9" d="M212.1,186.6c-8.3-0.2-27.5,1-45.1,2.4c-17.6-1.5-36.9-2.7-45.1-2.5c-3.1-0.2-4.1,5.1,0.6,5.2
			c1.1,0,5.6,0.3,11.9,0.6c-0.8,0.1-1.5,0.2-2,0.4c-8.5,1.9-9.5,12.4-9.5,16.7c0,4.3,5,5.5,5-1.8c0-7.2,0.6-11.1,5.7-11.6
			c2.3-0.2,17.1-1,33.3-1.9c16.2,0.9,31,1.8,33.3,2c5,0.4,5.7,4.4,5.7,11.6c0,7.2,5,6,5,1.8c0-4.3-0.9-14.7-9.4-16.7
			c-0.5-0.1-1.2-0.2-2-0.4c6.3-0.3,10.8-0.5,11.9-0.6C216.2,191.7,215.2,186.4,212.1,186.6z"/>
		<path class="st10" d="M214.8,187.7c-0.1-1.9-0.2-2.1-2.7-2.9c-2.1-0.7-14.3-1.7-22.5-1c-0.4,0-0.8,0.1-1.3,0.1
			c-8.1,0.8-18.6,3.6-21.3,3.5c-6.6-0.1-15.4-3.1-22.7-3.7c-1.6-0.1-3.3-0.2-5.1-0.2c-7.4-0.1-15.7,0.7-17.4,1.2
			c-2.5,0.8-2.6,1-2.7,2.9c-0.1,1.9,0.2,3.6,1.7,4c2,0.7,2,3.2,3.3,10.6c1.2,6.7,4.1,12,16.8,12.9c2.5,0.2,4.7,0,6.5-0.4
			c7.4-1.7,10.3-7.3,11.3-9.3c2.4-4.6,1.8-10.8,8.1-10.8c6.3,0,5.5,6.4,7.9,11c1.3,2.6,5.5,10.6,17.9,9.7c1.3-0.1,2.6-0.2,3.7-0.4
			c9.6-1.6,12.1-6.5,13.2-12.4c1.3-7.3,1.4-9.9,3.4-10.6C214.6,191.2,214.9,189.6,214.8,187.7z M149.9,212c-0.8,0.4-1.8,0.7-2.8,0.9
			c-6.4,1.4-15.9-0.6-18.8-5.8c-3.2-5.9-4-17.6,0.1-20.1c1.5-0.9,6.2-1.6,11.4-1.6c7.4,0,16,1.3,18.8,5.1
			C162.6,195.9,156.1,209.1,149.9,212z M205.7,207.2c-1.7,3-5.5,4.9-9.6,5.7c-4.3,0.9-9,0.6-12.1-0.9c-6.2-2.9-12.7-16.1-8.6-21.5
			c2.2-2.9,7.7-4.3,13.5-4.8c7.1-0.6,14.7,0.2,16.7,1.4C209.8,189.6,208.9,201.4,205.7,207.2z"/>
		<path class="st11" d="M205.6,187.1c4.2,2.5,3.3,14.3,0.1,20.1c-3.4,6.1-15.7,7.6-21.7,4.8c-6.2-2.9-12.7-16.1-8.6-21.5
			C180.2,184.1,201.9,184.9,205.6,187.1L205.6,187.1z M128.2,207.1c3.4,6.1,15.7,7.7,21.7,4.9c6.2-2.9,12.7-16,8.7-21.4
			c-4.8-6.4-26.5-5.7-30.2-3.5C124.2,189.5,125,201.3,128.2,207.1z"/>
	</g>
</g>
<g id="pictures">
	<path class="st1" d="M105.8,198.8l-20.1-51.7c-0.2-0.6-0.9-0.9-1.5-0.6l-21.1,8.2c-0.3-1.3-1.5-2.2-2.8-2.2c-1.6,0-2.9,1.3-2.9,2.9
		c0,0.1,0,0.2,0,0.3l-36.7,0.7c-0.6,0-1.1,0.5-1.1,1.2l1.1,55.5c0,0.6,0.5,1.1,1.2,1.1l34.1-0.6l1.6,4.2c0.2,0.6,0.9,0.9,1.5,0.6
		l46.2-18C105.7,200.1,106,199.4,105.8,198.8z"/>
	<g>
		<g>
			<path class="st7" d="M68.5,212c0,0.6-0.5,1.1-1.1,1.2l-49.5,0.9c-0.6,0-1.1-0.5-1.2-1.1l-1.1-55.5c0-0.6,0.5-1.1,1.1-1.2
				l49.5-0.9c0.6,0,1.1,0.5,1.2,1.1L68.5,212z"/>
			
				<rect x="20" y="159.1" transform="matrix(0.9998 -1.899523e-02 1.899523e-02 0.9998 -3.4304 0.8296)" class="st1" width="43.9" height="43.9"/>
			<path class="st8" d="M101.8,198.8c0.2,0.6-0.1,1.2-0.6,1.5l-46.2,18c-0.6,0.2-1.2-0.1-1.5-0.6l-20.1-51.7
				c-0.2-0.6,0.1-1.2,0.6-1.5l46.2-18c0.6-0.2,1.2,0.1,1.5,0.6L101.8,198.8z"/>
			
				<rect x="44.3" y="156.9" transform="matrix(0.932 -0.3626 0.3626 0.932 -60.3379 36.1726)" class="st4" width="43.9" height="43.9"/>
		</g>
		<circle class="st1" cx="56.3" cy="155.4" r="2.9"/>
	</g>
</g>
<g id="pins">
	<g>
		<path class="st1" d="M274,127.5l-0.3-7.1c0.9-0.5,1.6-1.3,2.1-2.2h-8.9c0.5,0.9,1.2,1.7,2.1,2.2l-0.3,7.1
			c-1.2,0.7-2.1,1.8-2.6,3.2h4.7c0.1,4.3,0.3,8.8,0.6,8.8c0.3,0,0.5-4.5,0.6-8.8h4.7C276.1,129.3,275.2,128.2,274,127.5z"/>
		<path class="st1" d="M294.6,122.4c1-0.1,2-0.4,2.9-1l-7.9-4c0,1.1,0.3,2.1,0.8,2.9l-3.5,6.2c-1.3,0.1-2.7,0.7-3.7,1.7l4.2,2.1
			c-1.9,3.9-3.8,8-3.5,8.1c0.3,0.1,2.5-3.8,4.5-7.6l4.2,2.1c0.2-1.5-0.1-2.9-0.8-4L294.6,122.4z"/>
		<path class="st1" d="M284.2,115.3l4.5-5.5c1.3,0.1,2.8-0.2,4-1l-3.8-2.8c2.5-3.5,5-7.2,4.8-7.4c-0.2-0.2-3.1,3.3-5.7,6.7l-3.8-2.8
			c-0.4,1.4-0.4,2.9,0.2,4.1l-3.9,5.9c-1-0.1-2,0.1-3,0.5l7.1,5.3C284.7,117.2,284.6,116.2,284.2,115.3z"/>
		<path class="st1" d="M308.3,170.4c-1.3-0.7-2.7-0.9-4.1-0.7l-5-5c0.3-1,0.3-2,0.1-3l-6.6,5.9c1,0.4,2,0.5,3,0.2l4.5,5.5
			c-0.4,1.3-0.3,2.7,0.2,4.1l3.5-3.1c3,3.1,6.1,6.3,6.3,6.1c0.2-0.2-2.6-3.7-5.5-6.9L308.3,170.4z"/>
		<path class="st1" d="M323.8,107.3l-7.3-5c-0.1,1,0,2.1,0.5,3l-4.2,5.7c-1.3-0.1-2.7,0.4-3.9,1.2l3.9,2.6c-2.3,3.6-4.7,7.4-4.5,7.6
			c0.3,0.2,2.9-3.4,5.4-6.9l3.9,2.6c0.4-1.4,0.2-2.9-0.3-4.1l3.7-6C321.9,108,322.9,107.8,323.8,107.3z"/>
	</g>
	<g>
		<g>
			<path class="st8" d="M267.6,139.5c0.6,0,0.7-16.5,0.7-16.5h-1.4C266.9,123,267,139.5,267.6,139.5z"/>
			<path class="st5" d="M270.3,127.5l-0.3-7.1c0.9-0.5,1.6-1.3,2.1-2.2h-8.9c0.5,0.9,1.2,1.7,2.1,2.2l-0.3,7.1
				c-1.2,0.7-2.1,1.8-2.6,3.2h10.5C272.4,129.3,271.5,128.2,270.3,127.5z"/>
		</g>
		<g>
			<path class="st8" d="M280.1,138.3c0.5,0.3,8.1-14.4,8.1-14.4l-1.2-0.6C287,123.3,279.6,138,280.1,138.3z"/>
			<path class="st8" d="M286.7,120.2l-3.5,6.2c-1.3,0.1-2.7,0.7-3.7,1.7l9.4,4.8c0.2-1.5-0.1-2.9-0.8-4l2.9-6.4c1-0.1,2-0.4,2.9-1
				l-7.9-4C285.9,118.4,286.1,119.4,286.7,120.2z"/>
		</g>
		<g>
			<path class="st8" d="M279.6,111.4l1.1,0.8c0,0,9.8-13.3,9.3-13.7C289.5,98.2,279.6,111.4,279.6,111.4z"/>
			<path class="st7" d="M280.7,106.6l-3.9,5.9c-1-0.1-2,0.1-3,0.5l7.1,5.3c0.2-1,0-2.1-0.3-3l4.5-5.5c1.3,0.1,2.8-0.2,4-1l-8.5-6.3
				C280.1,103.9,280.2,105.3,280.7,106.6z"/>
		</g>
		<g>
			<path class="st8" d="M295.1,168.7c0,0,11.1,12.2,11.6,11.8c0.4-0.4-10.6-12.7-10.6-12.7L295.1,168.7z"/>
			<path class="st4" d="M300.6,169.8l-5-5c0.3-1,0.3-2,0.1-3l-6.6,5.9c1,0.4,2,0.5,3,0.2l4.5,5.5c-0.4,1.3-0.3,2.7,0.2,4.1l7.8-7.1
				C303.4,169.7,301.9,169.5,300.6,169.8z"/>
		</g>
		<g>
			<path class="st8" d="M304.5,122.4c0.5,0.3,9.9-13.3,9.9-13.3l-1.1-0.8C313.2,108.3,304,122,304.5,122.4z"/>
			<path class="st6" d="M313.3,105.3l-4.2,5.7c-1.3-0.1-2.7,0.4-3.9,1.2l8.7,5.9c0.4-1.4,0.2-2.9-0.3-4.1l3.7-6c1,0.1,2-0.2,3-0.7
				l-7.3-5C312.7,103.3,312.8,104.4,313.3,105.3z"/>
		</g>
	</g>
</g>
</svg>
